<svg fill="none" height="20" viewBox="0 0 30 20" width="30" xmlns="http://www.w3.org/2000/svg"><path d="m10.0195 6.00752c2.0831 0 3.7717 1.78749 3.7717 3.99248 0 2.205-1.6886 3.9925-3.7717 3.9925m0-7.98498c-2.08304 0-3.77168 1.78749-3.77168 3.99248 0 2.205 1.68864 3.9925 3.77168 3.9925m0-7.98498h10.0598m-10.0598 7.98498h10.0598m0-7.98498c2.083 0 3.7717 1.78749 3.7717 3.99248 0 2.205-1.6887 3.9925-3.7717 3.9925m0-7.98498c-2.0831 0-3.7717 1.78749-3.7717 3.99248 0 2.205 1.6886 3.9925 3.7717 3.9925m-17.1673-5.84418h-1.912v4.99518h1.912m24.176-4.99518h1.912v4.99518h-1.912m-5.2129-12.1435h-13.64554c-2.69656 0-4.8817 2.31305-4.8817 5.16746v7.66504c0 2.8544 2.18514 5.1675 4.8817 5.1675h13.64554c2.6965 0 4.8816-2.3131 4.8816-5.1675v-7.66504c0-2.85441-2.1851-5.16746-4.8816-5.16746z" stroke="#b75def" stroke-linecap="round" stroke-linejoin="round" stroke-width="2"/></svg>